<?xml version="1.0" encoding="UTF-8" standalone="no"?>
<svg
   xmlns:dc="http://purl.org/dc/elements/1.1/"
   xmlns:cc="http://creativecommons.org/ns#"
   xmlns:rdf="http://www.w3.org/1999/02/22-rdf-syntax-ns#"
   xmlns:svg="http://www.w3.org/2000/svg"
   xmlns="http://www.w3.org/2000/svg"
   xmlns:sodipodi="http://sodipodi.sourceforge.net/DTD/sodipodi-0.dtd"
   xmlns:inkscape="http://www.inkscape.org/namespaces/inkscape"
   id="svg2994"
   version="1.1"
   inkscape:version="0.48.5 r10040"
   width="100%"
   height="100%"
   viewBox="0 -50 100 100"
   preserveAspectRatio="xMidYMid meet"
   sodipodi:docname="Yammer.svg">
  <metadata
     id="metadata3001">
    <rdf:RDF>
      <cc:Work
         rdf:about="">
        <dc:format>image/svg+xml</dc:format>
        <dc:type
           rdf:resource="http://purl.org/dc/dcmitype/StillImage" />
      </cc:Work>
    </rdf:RDF>
  </metadata>
  <defs
     id="defs2999">
    <pattern
       patternUnits="userSpaceOnUse"
       width="63.34375"
       height="64"
       id="pattern2991">
      <path
         id="path1"
         d="M 11.125,0 C 4.9804307,0 0,4.9817276 0,11.125 L 0,42.75 c 0,6.14582 4.9804307,11.125 11.125,11.125 l 0.65625,0 10.125,10.125 9.75,-10.125 20.5625,0 c 6.144642,0 11.125,-4.97918 11.125,-11.125 l 0,-31.625 C 63.34375,4.9817276 58.363392,0 52.21875,0 L 11.125,0 z m 3.84375,11.03125 c 0.858822,0.01848 1.680647,0.535162 2.0625,1.34375 l 0.09375,0.25 7.4375,18.8125 0.09375,0 c 0,0 6.309967,-16.436234 7.03125,-18.5 0.0325,-0.102909 0.0547,-0.157531 0.0625,-0.1875 0.402292,-1.093743 1.596279,-1.667966 2.71875,-1.3125 1.15097,0.368471 1.805988,1.596388 1.4375,2.75 L 35.875,14.25 l 0,0.03125 c -0.0494,0.13018 -0.1199,0.247381 -0.1875,0.40625 -0.434891,0.986932 -9.90625,24.6875 -9.90625,24.6875 -1.725256,4.395771 -3.455813,7.40625 -8.6875,7.40625 -0.690043,0 -1.46608,-0.0572 -2.21875,-0.1875 -1.039034,-0.300797 -1.657587,-1.359356 -1.375,-2.40625 0.248655,-0.919189 1.115863,-1.515549 2.03125,-1.46875 0.0625,0.0078 1.005136,0.0625 1.28125,0.0625 2.838428,0 3.897114,-1.718769 4.84375,-4.28125 l 0.5625,-1.25 c 0,0 -8.589869,-20.845046 -9.5,-23.15625 -0.384146,-1.174432 0.239652,-2.467471 1.40625,-2.90625 0.284508,-0.1071 0.557476,-0.162409 0.84375,-0.15625 z M 47.6875,14.8125 c 0.852909,0 1.662796,0.441427 2.125,1.15625 0.690205,1.085913 0.436211,2.487019 -0.5625,3.28125 -3.520935,1.937454 -9.45443,4.78125 -11.59375,4.78125 -0.320305,0 -0.539051,-0.0612 -0.71875,-0.1875 -0.170502,-0.118498 -0.260399,-0.317757 -0.25,-0.53125 0.0898,-1.637963 9.200592,-7.77736 10,-8.21875 l 0.25,-0.125 c 0.293003,-0.09246 0.514301,-0.15625 0.75,-0.15625 z m 4.9375,11.46875 0.28125,0.03125 c 1.148468,0.250021 1.928402,1.154812 2,2.25 0.0912,1.278805 -0.799637,2.406183 -2.0625,2.625 l -0.03125,0 -0.03125,0 c -0.1223,0 -12.000027,-0.0051 -12.9375,-1.90625 -0.0924,-0.187515 -0.08205,-0.412735 0.03125,-0.59375 0.873775,-1.405014 11.834633,-2.40485 12.75,-2.40625 z M 37.65625,33.6875 c 2.139206,0 8.097755,2.820453 11.5625,4.71875 1.053253,0.834556 1.28262,2.263107 0.59375,3.34375 -0.464779,0.718762 -1.27214,1.125 -2.125,1.125 -0.236992,0 -0.462108,-0.02855 -0.6875,-0.09375 L 46.6875,42.625 c -0.799366,-0.445274 -9.914105,-6.587337 -10,-8.21875 -0.0104,-0.213485 0.07951,-0.412757 0.25,-0.53125 0.179692,-0.124996 0.398464,-0.1875 0.71875,-0.1875 z"
         inkscape:connector-curvature="0" />
    </pattern>
  </defs>
  <sodipodi:namedview
     pagecolor="#ffffff"
     bordercolor="#666666"
     borderopacity="1"
     objecttolerance="10"
     gridtolerance="10"
     guidetolerance="10"
     inkscape:pageopacity="0"
     inkscape:pageshadow="2"
     inkscape:window-width="1920"
     inkscape:window-height="1137"
     id="namedview2997"
     showgrid="false"
     inkscape:zoom="4.6873377"
     inkscape:cx="75.600502"
     inkscape:cy="1065.1056"
     inkscape:window-x="-8"
     inkscape:window-y="-8"
     inkscape:window-maximized="1"
     inkscape:current-layer="svg2994" />
  <rect
     style="stroke:none;fill:url(#pattern2991)"
     width="63.34375"
     height="64"
     x="0"
     y="0"
     id="rect2994" />
</svg>
